HIERARCHY
ROOT Hips
{
	OFFSET 0.000000 0.000000 0.000000
	CHANNELS 6 Xposition Yposition Zposition Xrotation Yrotation Zrotation
	JOINT LeftUpLeg_virtual
	{
		OFFSET 0.000000 0.000000 0.000000
		CHANNELS 3 Xrotation Yrotation Zrotation
		JOINT LeftUpLeg
		{
			OFFSET 10.205400 -3.823500 0.155100
			CHANNELS 3 Xrotation Yrotation Zrotation
			JOINT LeftLeg
			{
				OFFSET 0.708757 -12.982077 0.567790
				CHANNELS 3 Xrotation Yrotation Zrotation
				JOINT LeftFoot
				{
					OFFSET -0.708756 -10.717838 -2.184338
					CHANNELS 3 Xrotation Yrotation Zrotation
					JOINT LeftToeBase
					{
						OFFSET 0.108149 -7.191104 7.560241
						CHANNELS 3 Xrotation Yrotation Zrotation
						JOINT LeftToe_End
						{
							OFFSET 0.070230 0.081724 4.490308
							CHANNELS 3 Xrotation Yrotation Zrotation
							End Site
							{
								OFFSET 0 0 0
							}
						}
					}
				}
			}
		}
	}
	JOINT RightUpLeg_virtual
	{
		OFFSET 0.000000 0.000000 0.000000
		CHANNELS 3 Xrotation Yrotation Zrotation
		JOINT RightUpLeg
		{
			OFFSET -10.205400 -3.823500 0.005500
			CHANNELS 3 Xrotation Yrotation Zrotation
			JOINT RightLeg
			{
				OFFSET -0.708756 -12.982134 0.610632
				CHANNELS 3 Xrotation Yrotation Zrotation
				JOINT RightFoot
				{
					OFFSET 0.708754 -10.717769 -1.945823
					CHANNELS 3 Xrotation Yrotation Zrotation
					JOINT RightToeBase
					{
						OFFSET -0.108140 -7.191069 7.372968
						CHANNELS 3 Xrotation Yrotation Zrotation
						JOINT RightToe_End
						{
							OFFSET -0.070227 0.081735 4.479403
							CHANNELS 3 Xrotation Yrotation Zrotation
							End Site
							{
								OFFSET 0 0 0
							}
						}
					}
				}
			}
		}
	}
	JOINT Spine_virtual
	{
		OFFSET 0.000000 0.000000 0.000000
		CHANNELS 3 Xrotation Yrotation Zrotation
		JOINT Spine
		{
			OFFSET 0.000000 6.876099 0.125700
			CHANNELS 3 Xrotation Yrotation Zrotation
			JOINT Spine1
			{
				OFFSET 0.000000 5.730043 0.104720
				CHANNELS 3 Xrotation Yrotation Zrotation
				JOINT Spine1_split
				{
					OFFSET 0.000000 5.730043 0.104720
					CHANNELS 3 Xrotation Yrotation Zrotation
					JOINT Spine2
					{
						OFFSET 0.000000 5.730043 0.104720
						CHANNELS 3 Xrotation Yrotation Zrotation
						JOINT Neck_virtual
						{
							OFFSET 0.000000 0.000000 0.000000
							CHANNELS 3 Xrotation Yrotation Zrotation
							JOINT Neck
							{
								OFFSET 0.000000 10.314075 0.188496
								CHANNELS 3 Xrotation Yrotation Zrotation
								JOINT Head
								{
									OFFSET 0.000000 7.643700 -2.377400
									CHANNELS 3 Xrotation Yrotation Zrotation
									JOINT HeadTop_End
									{
										OFFSET 0.000000 43.788605 -13.619600
										CHANNELS 3 Xrotation Yrotation Zrotation
										End Site
										{
											OFFSET 0 0 0
										}
									}
								}
							}
						}
						JOINT LeftShoulder_virtual
						{
							OFFSET 0.000000 0.000000 0.000000
							CHANNELS 3 Xrotation Yrotation Zrotation
							JOINT LeftShoulder
							{
								OFFSET 2.196100 4.412489 0.087492
								CHANNELS 3 Xrotation Yrotation Zrotation
								JOINT LeftShoulder_split
								{
									OFFSET 2.196100 4.412489 0.087492
									CHANNELS 3 Xrotation Yrotation Zrotation
									JOINT LeftArm
									{
										OFFSET 8.771219 -2.981674 -0.026999
										CHANNELS 3 Xrotation Yrotation Zrotation
										JOINT LeftForeArm
										{
											OFFSET 8.512804 0.000000 -0.000000
											CHANNELS 3 Xrotation Yrotation Zrotation
											JOINT LeftHand
											{
												OFFSET 18.484802 0.000000 -0.000000
												CHANNELS 3 Xrotation Yrotation Zrotation
												End Site
												{
													OFFSET 0 0 0
												}
											}
										}
									}
								}
							}
						}
						JOINT RightShoulder_virtual
						{
							OFFSET 0.000000 0.000000 0.000000
							CHANNELS 3 Xrotation Yrotation Zrotation
							JOINT RightShoulder
							{
								OFFSET -2.196100 4.412496 0.070690
								CHANNELS 3 Xrotation Yrotation Zrotation
								JOINT RightShoulder_split
								{
									OFFSET -2.196100 4.412496 0.070690
									CHANNELS 3 Xrotation Yrotation Zrotation
									JOINT RightArm
									{
										OFFSET -8.771282 -2.981682 -0.094208
										CHANNELS 3 Xrotation Yrotation Zrotation
										JOINT RightForeArm
										{
											OFFSET -8.494598 0.000000 0.000000
											CHANNELS 3 Xrotation Yrotation Zrotation
											JOINT RightHand
											{
												OFFSET -18.483803 0.000000 0.000001
												CHANNELS 3 Xrotation Yrotation Zrotation
												End Site
												{
													OFFSET 0 0 0
												}
											}
										}
									}
								}
							}
						}
					}
				}
			}
		}
	}
}
MOTION
Frames: 11
Frame Time: 0.03333333
0.219647 24.087254 1.908869 0.000000 0.000000 0.000000 -11.780873 -76.009924 -8.479323 -40.143341 11.927239 63.633792 45.364989 -6.394806 -6.082269 2.551713 -2.040506 -38.015586 -3.576569 0.418993 -0.261598 0.000000 0.000000 0.000000 -13.415192 -74.379039 -9.198737 -31.484010 6.864890 -40.533126 66.360431 18.025264 -5.691783 -28.324214 -11.506820 30.609865 5.255215 1.728590 1.023078 0.000000 0.000000 0.000000 -11.985930 -75.804636 -8.433836 4.570418 -2.261545 -2.140911 4.069092 -0.322969 -3.244367 0.472124 0.696473 0.287225 0.000000 0.000000 0.000000 5.792890 0.045727 -2.948825 -6.307470 21.107774 6.027928 0.725426 18.309647 -8.442528 0.000000 0.000000 0.000000 6.043357 -0.158584 -3.355913 -0.008361 -5.295040 -17.953369 -1.997188 -1.956813 -1.254321 -44.086761 -23.044561 -5.372486 -6.241711 -32.540606 -4.356957 0.000000 0.000000 0.000000 5.205497 -0.155215 -2.961276 2.078994 16.106570 5.399627 7.859601 3.394757 2.450122 18.992956 74.706382 -7.553212 76.676277 86.551501 -87.342041 0.000000 0.000000 0.000000 
0.205117 24.202612 1.850409 0.000000 0.000000 0.000000 -12.574523 -75.854271 -9.671824 -39.007466 11.710302 63.697108 45.064393 -6.282594 -6.138808 2.214920 -1.295954 -37.158937 -3.202483 0.347766 -0.217228 0.000000 0.000000 0.000000 -14.705351 -74.494619 -10.659766 -31.739452 7.032186 -40.084154 64.724280 18.262025 -5.318088 -27.668178 -11.365122 31.164367 4.921251 1.901322 0.973407 0.000000 0.000000 0.000000 -12.416955 -76.184367 -9.317269 4.075862 -2.143526 -1.912716 3.828714 -0.302989 -3.194693 -0.074222 0.849359 0.299771 0.000000 0.000000 0.000000 5.621853 -0.089673 -2.884288 -5.918183 21.216941 6.038980 1.304393 18.784224 -8.859307 0.000000 0.000000 0.000000 5.734816 -0.176752 -3.249416 -0.109487 -5.336486 -18.217721 -2.016004 -0.772446 -1.960216 -44.183794 -23.113432 -5.940659 -5.943404 -34.116348 -4.074771 0.000000 0.000000 0.000000 5.082414 -0.168035 -2.976490 2.090574 16.162953 5.217467 8.349142 1.436690 2.232327 17.867934 74.293259 -5.662786 64.879434 86.733130 -75.494614 0.000000 0.000000 0.000000 
0.267207 24.450836 1.735685 0.000000 0.000000 0.000000 -15.514017 -76.361597 -13.081148 -36.836716 11.582598 63.705092 43.679111 -5.902112 -6.443456 2.519851 -0.285934 -36.054380 -2.835099 0.208727 -0.288154 0.000000 0.000000 0.000000 -17.237603 -75.216297 -13.585822 -32.374520 7.209339 -39.649795 62.175260 18.818332 -4.793498 -25.403437 -10.090379 32.085637 5.189506 2.048544 1.080603 0.000000 0.000000 0.000000 -15.096926 -76.937314 -12.527121 3.593159 -1.713428 -1.313836 3.887625 -0.307469 -2.991086 -0.194900 0.411328 0.099855 0.000000 0.000000 0.000000 5.750639 -0.228036 -2.699185 -6.011058 21.470485 6.259780 2.160076 20.250454 -9.396615 0.000000 0.000000 0.000000 5.646336 -0.250814 -2.995248 -0.406332 -5.691494 -18.696465 -2.694492 0.080019 -2.193382 -42.181688 -21.797857 -7.319614 -5.923966 -35.843562 -4.343031 0.000000 0.000000 0.000000 5.134682 -0.163566 -2.810569 2.095584 15.618184 5.375157 7.537360 0.706962 2.172701 15.557650 71.751383 -1.340261 41.485732 86.049182 -51.750281 0.000000 0.000000 0.000000 
0.361336 24.798592 1.622316 0.000000 0.000000 0.000000 -20.499805 -77.401514 -18.511503 -33.879917 11.626135 63.624585 41.542751 -5.358646 -6.937832 3.577748 0.528887 -34.953066 -3.667888 -0.032604 0.055882 0.000000 0.000000 0.000000 -20.436860 -75.974359 -17.324848 -32.934243 7.302436 -39.176029 59.581605 19.252591 -4.214581 -22.325131 -8.239238 32.999465 5.798931 2.155788 1.432253 0.000000 0.000000 0.000000 -19.208404 -77.445903 -17.138925 3.282966 -1.071963 -0.496782 4.185577 -0.346413 -2.654727 0.341223 -0.403226 0.364069 0.000000 0.000000 0.000000 5.969825 -0.348989 -2.450614 -6.431571 21.674019 6.640871 3.256707 22.466980 -10.003114 0.000000 0.000000 0.000000 5.808261 -0.367730 -2.678442 -0.822468 -6.552379 -19.486245 -3.326753 0.459118 -2.110568 -37.778350 -19.855671 -9.488200 -6.055227 -38.542252 -5.000927 0.000000 0.000000 0.000000 5.365298 -0.124789 -2.521494 2.100323 14.754073 5.941888 5.838131 1.334502 2.067127 13.245403 67.403790 4.280586 23.750224 84.268415 -33.329407 0.000000 0.000000 0.000000 
0.438278 25.205017 1.601759 0.000000 0.000000 0.000000 -26.085307 -78.356763 -24.458590 -30.375456 11.898135 63.352839 39.138719 -4.694200 -7.475388 4.707565 1.066040 -33.780275 -5.671964 -0.376246 0.945693 0.000000 0.000000 0.000000 -22.684148 -76.034567 -20.110413 -32.793483 7.113157 -38.605370 57.223564 19.064093 -3.727464 -19.300586 -6.743547 33.552676 5.744511 2.136549 1.984592 0.000000 0.000000 0.000000 -23.745414 -77.491577 -22.000828 3.267072 -0.403818 0.343741 4.571542 -0.437332 -2.221445 0.808386 -1.066887 1.007159 0.000000 0.000000 0.000000 6.085150 -0.477058 -2.171629 -6.894086 21.890464 7.118374 4.528501 24.826133 -10.552408 0.000000 0.000000 0.000000 6.148853 -0.550827 -2.368920 -1.296452 -7.929357 -20.543490 -2.927355 0.440061 -1.888795 -30.663414 -18.200733 -11.937140 -6.080492 -42.953089 -5.689604 0.000000 0.000000 0.000000 5.677206 -0.080078 -2.156585 2.031221 13.632482 7.028725 3.772977 2.772533 1.911767 11.767572 62.005448 9.862466 13.121873 81.220088 -21.688139 0.000000 0.000000 0.000000 
0.507817 25.583916 1.593853 0.000000 0.000000 0.000000 -29.433362 -78.637225 -28.044501 -26.849100 12.077733 62.768626 36.810980 -3.732350 -7.973326 5.142326 1.432256 -32.520668 -7.107238 -0.726628 1.823599 0.000000 0.000000 0.000000 -22.357275 -75.175207 -20.250092 -31.497185 6.763943 -37.987753 55.185985 18.143559 -3.585870 -17.030488 -6.224322 33.824640 4.823596 1.936794 2.587207 0.000000 0.000000 0.000000 -26.847201 -77.022336 -25.144411 3.554047 0.136195 1.012186 4.907565 -0.615521 -1.718079 0.769880 -1.391653 1.279351 0.000000 0.000000 0.000000 5.969814 -0.639942 -1.853993 -7.008628 22.127754 7.589167 5.738891 26.994685 -10.961262 0.000000 0.000000 0.000000 6.551056 -0.805481 -2.083170 -1.715041 -9.641680 -21.541327 -2.517469 0.065566 -1.684995 -21.769389 -18.558143 -13.865246 -5.778059 -49.413806 -6.042834 0.000000 0.000000 0.000000 5.975245 -0.070531 -1.720400 1.851831 12.423026 8.728863 1.695203 3.696887 1.592186 11.244518 56.602935 14.575084 7.224534 76.531313 -14.474673 0.000000 0.000000 0.000000 
0.570649 25.921343 1.571529 0.000000 0.000000 0.000000 -28.663278 -78.149460 -27.385717 -23.702020 11.831522 61.844173 34.406422 -2.743941 -8.293648 4.692118 1.487902 -31.962652 -7.151220 -0.988548 2.478747 0.000000 0.000000 0.000000 -19.581661 -73.582789 -17.770412 -29.130142 6.357286 -37.529728 53.152508 16.751637 -3.799752 -15.690497 -6.809302 34.106474 4.002549 1.620551 3.091124 0.000000 0.000000 0.000000 -27.588114 -76.239623 -25.714921 4.125112 0.387000 1.356734 5.067211 -0.963275 -1.176605 0.635845 -1.546920 1.649207 0.000000 0.000000 0.000000 5.636060 -0.932457 -1.493218 -6.584467 22.587772 7.928913 6.658345 29.034277 -11.243124 0.000000 0.000000 0.000000 6.865984 -1.185022 -1.784330 -2.021705 -11.520726 -21.993091 -2.442919 -0.245658 -2.315796 -12.708737 -22.062409 -14.088602 -5.105090 -57.761072 -5.696613 0.000000 0.000000 0.000000 6.134461 -0.244425 -1.179310 1.524959 11.297469 11.005055 -0.394111 3.555575 1.149822 11.063649 52.106605 18.446502 4.673016 70.496370 -10.242276 0.000000 0.000000 0.000000 
0.636060 26.208485 1.560505 0.000000 0.000000 0.000000 -23.612900 -76.895704 -22.396839 -21.238034 10.833435 60.606454 31.754666 -2.075457 -8.365088 4.053324 0.954672 -32.919452 -6.163188 -1.143220 3.031086 0.000000 0.000000 0.000000 -15.725792 -71.600163 -13.980854 -26.357230 5.874212 -37.473867 50.812018 15.144485 -4.220260 -14.744194 -8.299465 34.819037 3.858370 1.265447 3.234206 0.000000 0.000000 0.000000 -25.816254 -75.379668 -23.633805 4.776613 0.211708 1.337144 5.054777 -1.593101 -0.626645 0.443299 -1.831783 1.840077 0.000000 0.000000 0.000000 5.201837 -1.432952 -1.044639 -5.723261 23.527184 8.020941 7.187347 31.021947 -11.496538 0.000000 0.000000 0.000000 6.943333 -1.763410 -1.387207 -2.071813 -13.230329 -21.302213 -2.270857 -0.419866 -3.091945 -5.617772 -29.194062 -11.692587 -3.577130 -66.797488 -4.024703 0.000000 0.000000 0.000000 6.131308 -0.738345 -0.535697 1.111042 10.316088 13.696242 -2.217479 2.595966 0.586936 10.564486 48.903140 21.621809 4.380831 64.295057 -7.887305 0.000000 0.000000 0.000000 
0.692337 26.466059 1.608074 0.000000 0.000000 0.000000 -16.353044 -75.020913 -15.173661 -19.720346 9.462325 59.337671 28.807282 -1.435471 -8.276033 3.778073 -0.261238 -35.133370 -4.958769 -1.201791 3.373712 0.000000 0.000000 0.000000 -11.809495 -69.740295 -9.887736 -23.866409 5.311506 -37.865541 48.102997 13.618532 -4.688401 -13.351371 -10.022214 36.342518 4.083656 0.959806 2.947694 0.000000 0.000000 0.000000 -21.999628 -74.491518 -19.457561 5.323494 -0.407176 1.070169 4.929189 -2.520910 -0.072252 0.472326 -1.967551 1.738651 0.000000 0.000000 0.000000 4.753477 -2.177122 -0.506200 -4.772353 24.813814 7.875486 7.435909 33.216419 -12.013612 0.000000 0.000000 0.000000 6.817059 -2.585574 -0.851333 -1.666073 -14.548904 -18.896436 -1.684327 -0.221200 -3.034737 -2.129369 -39.971520 -6.957684 -0.319405 -74.352353 -0.166250 0.000000 0.000000 0.000000 6.039180 -1.591366 0.193334 0.715192 9.699079 16.488208 -3.101236 1.383308 -0.245989 9.525993 46.557991 24.277107 5.348946 58.873751 -6.537211 0.000000 0.000000 0.000000 
0.757283 26.719713 1.701138 0.000000 0.000000 0.000000 -9.335508 -73.106616 -8.140249 -19.132716 8.270578 58.390256 26.181671 -0.428673 -8.076745 4.211085 -1.984945 -37.648399 -4.058648 -1.192827 3.278280 0.000000 0.000000 0.000000 -8.184055 -68.374189 -5.915891 -21.965899 4.565501 -38.609126 44.888311 12.363938 -4.951319 -11.175259 -11.344154 38.612354 4.029799 0.748177 2.345434 0.000000 0.000000 0.000000 -16.725684 -73.689613 -13.972758 5.618254 -1.374807 0.723627 4.772476 -3.699373 0.459379 0.853266 -1.833455 1.352927 0.000000 0.000000 0.000000 4.336121 -3.191885 0.080318 -4.199492 26.237379 7.691555 7.835267 35.695060 -13.156823 0.000000 0.000000 0.000000 6.571880 -3.643519 -0.194020 -0.747589 -15.146636 -14.553455 -0.695503 0.416671 -1.795683 -3.276216 -53.900144 -2.072829 4.310570 -79.139489 5.579293 0.000000 0.000000 0.000000 5.985589 -2.769544 0.914884 0.437976 9.458985 19.130711 -3.619759 0.669134 -1.058406 8.073307 44.309664 26.559083 7.168892 55.066802 -5.939039 0.000000 0.000000 0.000000 
0.832460 26.984350 1.904360 0.000000 0.000000 0.000000 -3.369161 -71.608086 -2.082702 -19.032221 7.549880 57.922251 24.307170 1.619636 -7.705971 5.216798 -3.572022 -39.410960 -2.796265 -1.085397 2.259409 0.000000 0.000000 0.000000 -4.767403 -67.742417 -2.218868 -20.517012 3.646277 -39.379060 41.167924 10.988085 -4.799834 -8.622368 -12.058537 40.651677 3.703975 0.618746 1.782915 0.000000 0.000000 0.000000 -10.526432 -73.035104 -7.779233 5.503205 -2.502390 0.509037 4.626576 -5.004873 0.945593 0.976909 -1.657302 0.524281 0.000000 0.000000 0.000000 3.958933 -4.423136 0.667403 -4.256118 27.525283 7.617620 8.710170 38.229122 -15.155283 0.000000 0.000000 0.000000 6.304474 -4.885707 0.498943 0.655660 -14.716211 -8.321553 0.085640 1.395588 -0.258128 -14.501808 -69.480079 -4.176380 6.257112 -80.757158 8.964023 0.000000 0.000000 0.000000 6.052366 -4.139467 1.560395 0.360843 9.642077 21.645624 -3.867817 0.764543 -1.801397 6.038839 40.982351 28.335993 9.133682 52.807369 -5.710789 0.000000 0.000000 0.000000 
